<?xml version="1.0" standalone="no"?>
<!DOCTYPE svg PUBLIC "-//W3C//DTD SVG 1.1//EN" "http://www.w3.org/Graphics/SVG/1.1/DTD/svg11.dtd" >
<svg xmlns="http://www.w3.org/2000/svg">
<metadata>Generated by IcoMoon</metadata>
<defs>
<font id="ci-icons" horiz-adv-x="1024">
<font-face units-per-em="1024" ascent="960" descent="-64" />
<missing-glyph horiz-adv-x="1024" />
<glyph unicode="&#x20;" horiz-adv-x="512" d="" />
<glyph unicode="&#xe900;" d="M1024 448c0-282.77-229.23-512-512-512s-512 229.23-512 512c0 282.77 229.23 512 512 512s512-229.23 512-512z" />
<glyph unicode="&#xe902;" glyph-name="redo" horiz-adv-x="792" d="M734.964-26.152l56.12 269.133c5.267 25.217-11.932 49.734-38.361 54.768l-282.184 53.51c-26.429 5.034-52.158-11.373-57.425-36.59-0.653-3.076-0.932-6.106-0.932-9.136 0-21.767 16.081-41.204 39.293-45.632l175.351-33.234c-135.825-70.383-310.057-50.853-424.488 58.311-69.823 66.607-104.735 154.003-104.689 241.492 0 87.396 34.912 174.885 104.689 241.446 139.6 133.121 366.736 133.121 506.337 0 19.064-18.225 49.967-18.225 69.031 0 19.064 18.178 19.064 47.683 0 65.862-177.682 169.478-466.764 169.478-644.446 0-88.841-84.739-133.261-196-133.261-307.307s44.42-222.615 133.261-307.354c85.671-81.709 199.589-126.922 320.778-127.295 76.815-0.233 150.787 17.572 216.649 51.319l-31.509-151.113c-5.267-25.217 11.886-49.734 38.361-54.768s52.158 11.373 57.425 36.59z" />
<glyph unicode="&#xe903;" glyph-name="close" horiz-adv-x="1045" d="M615.159 447.747l410.712 402.419c25.537 24.93 25.537 65.485 0 90.466s-66.851 24.981-92.388 0l-410.712-402.369-410.712 402.369c-25.537 24.981-66.851 24.981-92.337 0-25.537-24.981-25.537-65.536 0-90.466l410.712-402.419-410.712-402.369c-25.537-24.981-25.537-65.485 0-90.466 12.743-12.541 29.481-18.761 46.168-18.761s33.425 6.22 46.168 18.761l410.712 402.369 410.712-402.369c12.794-12.541 29.481-18.761 46.219-18.761 16.687 0 33.425 6.22 46.168 18.761 25.537 24.981 25.537 65.485 0 90.466l-410.712 402.369z" />
<glyph unicode="&#xe904;" glyph-name="arrow" horiz-adv-x="1741" d="M938.291-36.147l774.656 775.68c17.92 17.92 27.853 41.882 27.853 67.379 0 25.6-9.933 49.562-27.853 67.482l-57.037 57.139c-37.171 37.171-97.587 37.171-134.656 0l-650.547-651.366-651.162 652.083c-17.92 17.92-41.882 27.853-67.379 27.853s-49.459-9.933-67.379-27.853l-57.037-57.139c-17.92-17.92-27.75-41.882-27.75-67.482 0-25.498 9.83-49.459 27.75-67.379l775.373-776.397c18.022-17.92 42.086-27.853 67.584-27.75 25.6-0.102 49.664 9.83 67.584 27.75z" />
<glyph unicode="&#xe905;" glyph-name="carouselArrow" horiz-adv-x="532" d="M67.832 448.677l455.631 463.013c11.196 11.401 11.196 29.651 0 41.052s-29.2 11.401-40.396 0l-475.931-483.641c-11.237-11.401-11.237-29.692 0-41.052l475.931-483.436c5.495-5.618 12.918-8.612 20.095-8.612s14.6 2.789 20.095 8.612c11.196 11.36 11.196 29.651 0 41.011l-455.426 463.054z" />
<glyph unicode="&#xe906;" glyph-name="shopping-card-new" horiz-adv-x="956" d="M272.384 285.764h566.613c0.021 0 0.045 0 0.069 0 64.266 0 116.395 51.962 116.667 116.164v239.915c0.006 0.065 0.009 0.141 0.009 0.218 0 0.378-0.079 0.737-0.22 1.062l0.007-0.017c0 0.41-0.205 1.058-0.205 1.468s-0.239 0.853-0.239 1.399c-0.139 0.385-0.28 0.876-0.393 1.378l-0.017 0.089c-0.205 0.41-0.205 0.853-0.41 1.263s-0.205 0.683-0.444 1.161c-0.227 0.409-0.446 0.894-0.626 1.396l-0.022 0.071c-0.18 0.404-0.397 0.753-0.655 1.066l0.006-0.008-0.649 1.263c-0.205 0.41-0.41 0.614-0.614 1.058s-0.649 0.853-0.853 1.263c-0.225 0.413-0.51 0.764-0.848 1.054l-0.005 0.004c-0.171 0.375-0.649 0.614-0.649 1.024s-0.649 0.614-0.853 1.058c-0.231 0.339-0.515 0.622-0.842 0.846l-0.011 0.007-1.195 1.024c-0.512 0.205-0.512 0.649-1.058 0.853s-0.853 0.614-1.263 0.853-0.614 0.341-1.058 0.614c-0.487 0.222-0.905 0.508-1.264 0.855l0.001-0.001-1.263 0.614-1.434 0.649-1.263 0.649c-0.273 0.171-0.683 0.171-1.126 0.375-0.427 0.22-0.926 0.367-1.454 0.409l-0.014 0.001c-0.413 0.056-0.772 0.127-1.122 0.219l0.064-0.014c-0.419 0.136-0.901 0.215-1.401 0.215-0.108 0-0.214-0.004-0.32-0.011l0.014 0.001c-0.243 0.086-0.53 0.157-0.827 0.202l-0.026 0.003-718.199 98.748v99.772c0.008 0.171 0.013 0.372 0.013 0.573 0 0.835-0.079 1.652-0.23 2.443l0.013-0.081c0.001 0.022 0.002 0.049 0.002 0.075 0 0.286-0.077 0.555-0.211 0.786l0.004-0.008c0 0.614-0.205 1.263-0.205 1.877s-0.239 1.058-0.444 1.673-0.307 0.649-0.307 1.058l-0.512 1.911c0 0.205-0.205 0.614-0.205 0.853-0.216 0.638-0.506 1.192-0.866 1.691l0.013-0.019c-0.239 0.205-0.239 0.614-0.444 0.819-0.221 0.488-0.507 0.905-0.855 1.264l0.001-0.001c-0.205 0.58-0.546 0.58-0.546 1.058s-0.512 0.649-0.717 1.058-0.614 0.853-0.853 1.263l-0.614 0.614-1.229 1.263-0.683 0.649c-0.438 0.465-0.918 0.88-1.438 1.243l-0.030 0.020c-0.205 0.239-0.649 0.41-0.853 0.614s-0.853 0.649-1.263 1.058c-0.475 0.335-1.033 0.686-1.608 1.008l-0.098 0.050c-0.205 0.205-0.41 0.205-0.614 0.41l-2.731 1.263-155.785 65.263c-3.584 1.749-7.798 2.771-12.251 2.771-15.722 0-28.467-12.745-28.467-28.467 0-12.141 7.6-22.506 18.302-26.599l0.195-0.066 138.24-58.027v-622.626c0.221-58.933 44.18-107.531 101.092-115.034l0.591-0.064c-10.101-16.765-16.076-37.006-16.076-58.643 0-63.51 51.485-114.995 114.995-114.995 63.415 0 114.84 51.331 114.995 114.709v0.015c0.001 0.167 0.001 0.364 0.001 0.561 0 21.213-5.889 41.050-16.121 57.967l0.281-0.501h256.546c-9.951-16.458-15.839-36.339-15.839-57.596 0-0.152 0-0.303 0.001-0.454v0.023c-0.001-0.152-0.001-0.332-0.001-0.512 0-63.623 51.577-115.2 115.2-115.2s115.2 51.577 115.2 115.2c0 63.623-51.576 115.199-115.199 115.2h-538.999c-0.020 0-0.044 0-0.069 0-32.817 0-59.431 26.555-59.528 59.349v77.014c17.043-10.063 37.554-16.009 59.455-16.009 0.050 0 0.1 0 0.15 0h-0.008zM414.413 50.893c0-32.047-25.979-58.027-58.027-58.027s-58.027 25.979-58.027 58.027c0 32.047 25.979 58.027 58.027 58.027v0c0.010 0 0.022 0 0.034 0 32.047 0 58.027-25.979 58.027-58.027v0zM869.683 50.893c0-32.047-25.979-58.027-58.027-58.027s-58.027 25.979-58.027 58.027c0 32.047 25.979 58.027 58.027 58.027v0c0.010 0 0.022 0 0.034 0 32.047 0 58.027-25.979 58.027-58.027v0zM838.963 342.562h-566.579c-0.020 0-0.044 0-0.069 0-32.817 0-59.431 26.555-59.528 59.349v307.209l685.875-94.208v-212.753c-0.019-32.9-26.694-59.563-59.597-59.563v0zM922.283 638.703l-6.417-287.983-54.033-42.223-650.889 33.246-26.999 121.617 7.714 277.743z" />
<glyph unicode="&#xe907;" glyph-name="user-down" horiz-adv-x="1387" d="M693.677 321.024c28.077-21.801 56.485-43.636 84.563-65.47 66.56-44.312 147.33-72.446 234.338-77.080l1.182-0.050-0.991-177.681c0-24.081 4.625-54.966-11.892-63.125-19.819-10.802-63.422 34.321-76.305 44.395l-166.483 140.255c-23.928 15.048-44.399 32.872-61.784 53.393l-0.317 0.384c-0.661 48.359-1.321 96.685-2.312 144.979zM1387.355 321.024c-28.408-21.801-56.485-43.636-84.563-65.47-66.576-44.263-147.335-72.388-234.322-77.079l-1.198-0.052 0.991-177.681c0-24.081-4.625-54.966 11.892-63.125 19.819-10.802 63.092 34.321 75.974 44.395l166.483 140.255c23.984 14.954 44.469 32.79 61.779 53.384l0.322 0.393c0.991 48.359 1.652 96.685 2.643 144.979zM1017.394 960c178.044 2.676 289.363-82.25 341.554-200.671 17.954-41.779 28.394-90.408 28.394-141.475 0-48.286-9.334-94.392-26.296-136.612l0.875 2.466c-41.145-92.906-119.639-162.896-215.916-191.723l-2.427-0.624c-24.204-5.937-53.373-10.758-83.152-13.466l-2.401-0.176-32.041 1.519-38.648 2.279c-29.096 4.74-54.982 11.852-79.676 21.365l2.711-0.918c-95.037 37.688-167.665 114.305-199.159 209.637l-0.686 2.397c-5.826 20.894-10.703 46.092-13.655 71.874l-0.219 2.349c-1.656 11.446-2.602 24.662-2.602 38.1 0 16.506 1.427 32.679 4.165 48.402l-0.241-1.675c4.103 25.572 10.080 48.253 18.009 69.995l-0.832-2.61c36.608 92.39 109.076 163.877 199.778 198.357l2.379 0.794c19.738 7.043 43.315 13.099 67.591 17.078l2.437 0.33zM1034.24 870.648l-29.068-2.279c-21.048-3.231-39.746-7.985-57.698-14.32l2.204 0.678c-68.348-26.603-121.641-79.111-148.675-145.152l-0.631-1.743c-58.137-145.54 40.63-276.777 140.057-318.794 28.265-13.291 61.388-21.048 96.323-21.048 5.858 0 11.666 0.218 17.414 0.647l-0.767-0.046c26.542 2.748 50.362 7.018 73.55 12.877l-3.522-0.754c70.994 23.344 127.039 75.106 155.61 141.478l0.632 1.651c10.877 28.274 17.178 60.986 17.178 95.169 0 33.512-6.056 65.61-17.133 95.259l0.616-1.88c-37.355 93.621-127.249 158.572-232.314 158.572-4.846 0-9.66-0.138-14.439-0.411l0.662 0.030zM331.314 445.357c-0.065-3.268-1.306-6.234-3.315-8.503l0.012 0.014-154.921-174.212c-1.776-2.154-4.445-3.517-7.432-3.517s-5.656 1.363-7.419 3.5l-0.013 0.016-154.921 174.212c-1.996 2.249-3.215 5.227-3.215 8.489s1.219 6.24 3.226 8.503l-0.012-0.013c1.829 2.148 4.536 3.501 7.559 3.501 0.014 0 0.027 0 0.041 0h309.51c6.098-0.355 10.909-5.387 10.909-11.543 0-0.157-0.003-0.314-0.009-0.47l0.001 0.022z" />
<glyph unicode="&#xe908;" glyph-name="Facebook" horiz-adv-x="404" d="M268.648 624.571v88.285c-0.021 1.145-0.033 2.496-0.033 3.849 0 9.47 0.585 18.804 1.721 27.967l-0.111-1.096c1.207 7.972 3.69 15.148 7.254 21.648l-0.169-0.337c3.745 7.064 10.074 12.339 17.697 14.615l0.209 0.054c8.869 2.668 19.061 4.203 29.612 4.203 1.168 0 2.332-0.019 3.491-0.056l-0.169 0.004h74.724v176.294h-119.476q-103.728 0-149.006-58.119t-45.25-171.036v-106.275h-89.503v-176.571h89.503v-512h179.504v512h119.476l15.803 176.571h-135.279z" />
<glyph unicode="&#xe909;" glyph-name="Instagram" horiz-adv-x="1011" d="M731.746 960h-452.986c-154.23-1.274-278.765-126.596-278.765-281.005 0-0.566 0.002-1.132 0.005-1.698v0.087-458.769c-0.003-0.479-0.005-1.044-0.005-1.61 0-154.409 124.536-279.732 278.645-281.005l0.12-0.001h452.838c154.327 1.274 278.942 126.676 278.942 281.183 0 0.504-0.001 1.007-0.004 1.51v-0.078 458.769c0.003 0.478 0.005 1.044 0.005 1.61 0 154.42-124.552 279.748-278.676 281.005l-0.119 0.001zM921.007 218.616c0.002-0.337 0.003-0.735 0.003-1.133 0-104.814-84.541-189.883-189.153-190.737l-0.081-0.001h-453.015c-104.69 0.838-189.234 85.9-189.234 190.708 0 0.409 0.001 0.817 0.004 1.225v-0.063 458.769c-0.002 0.345-0.004 0.754-0.004 1.162 0 104.808 84.544 189.87 189.155 190.707l0.080 0.001h452.838c104.707-0.838 189.264-85.913 189.264-190.738 0-0.398-0.001-0.796-0.004-1.194v0.061-458.769zM505.328 711.785c-1.041 0.015-2.269 0.023-3.499 0.023-145.766 0-263.933-118.167-263.933-263.933s118.167-263.933 263.933-263.933c145.766 0 263.933 118.167 263.933 263.933 0 0.096 0 0.192 0 0.289v-0.015c0.002 0.381 0.003 0.831 0.003 1.282 0 144.221-116.369 261.263-260.333 262.353l-0.104 0.001zM505.328 274.961c-0.688-0.010-1.5-0.015-2.313-0.015-95.583 0-173.069 77.486-173.069 173.069s77.486 173.069 173.069 173.069c95.536 0 172.992-77.409 173.069-172.927v-0.007c0.002-0.293 0.003-0.639 0.003-0.985 0-94.598-76.276-171.382-170.681-172.202l-0.078-0.001zM776.674 788.889c-18.185-0.072-34.611-7.546-46.432-19.564l-0.009-0.009c-11.926-12.022-19.298-28.577-19.306-46.854v-0.001c0.067-18.362 7.421-34.994 19.318-47.165l-0.012 0.013c11.81-12.084 28.272-19.578 46.485-19.578s34.675 7.493 46.473 19.565l0.012 0.012c11.868 12.163 19.203 28.797 19.246 47.144v0.008c0 0.014 0 0.030 0 0.046 0 18.254-7.35 34.792-19.252 46.815l0.006-0.006c-11.855 12.039-28.314 19.515-46.518 19.573h-0.011z" />
<glyph unicode="&#xe90a;" glyph-name="label" horiz-adv-x="853" d="M0.102-64v1024h853.026c0-186.027-49.391-360.346-134.554-512 85.163-151.654 134.554-325.973 134.554-512h-853.026z" />
<glyph unicode="&#xe90b;" d="M828.928 626.735c-5.607 5.19-13.137 8.374-21.411 8.374s-15.804-3.184-21.432-8.393l0.021 0.019-363.055-342.575-139.636 131.724c-5.614 5.194-13.152 8.379-21.434 8.379s-15.82-3.186-21.455-8.398l0.021 0.019c-5.459-5.050-8.865-12.251-8.865-20.247s3.406-15.197 8.847-20.231l0.018-0.017 160.954-151.738c5.614-5.194 13.152-8.379 21.434-8.379s15.82 3.186 21.455 8.398l-0.021-0.019 384.372 362.589c5.54 5.043 9.003 12.283 9.003 20.333 0 7.961-3.387 15.13-8.799 20.146l-0.018 0.016z" />
<glyph unicode="&#xe90c;" glyph-name="carouselarrowcopy" horiz-adv-x="532" d="M462.743 447.959l-455.625-462.498c-11.21-11.373-11.21-29.619 0-40.993s29.169-11.373 40.379 0l475.957 483.076c11.21 11.414 11.21 29.619 0 40.993l-475.957 482.871c-5.482 5.605-12.887 8.591-20.087 8.591-7.159 0-14.564-2.782-20.046-8.591-11.21-11.373-11.21-29.619 0-40.993l455.379-462.457z" />
<glyph unicode="&#xe90d;" glyph-name="Twitter" horiz-adv-x="1180" d="M1179.901 838.878c-40.403-19.536-87.298-33.772-136.64-40.239l-2.339-0.251c50.709 33.309 88.399 82.843 105.944 141.106l0.47 1.818c-44.044-28.561-95.505-50.272-150.635-62.095l-3.017-0.542c-43.006 49.74-106.029 81.169-176.405 81.67h-0.087c-134.725-4.855-242.099-115.242-242.099-250.708 0-2.865 0.048-5.719 0.143-8.561l-0.011 0.413c0-0.037 0-0.081 0-0.125 0-20.797 2.282-41.061 6.609-60.555l-0.345 1.85c-204.571 13.054-382.808 115.593-497.493 268.53l-1.253 1.745c-20.632-37.334-32.774-81.847-32.774-129.196 0-0.325 0.001-0.65 0.002-0.974v0.051c-0.008-0.787-0.013-1.716-0.013-2.646 0-86.94 42.068-164.055 106.959-212.099l0.715-0.506c-40.673 1.56-78.263 13.452-110.618 33.105l1.020-0.575c0-1.038 0-2.422 0-3.461-0.045-1.776-0.070-3.868-0.070-5.966 0-119.169 81.863-219.217 192.42-246.979l1.756-0.373c-19.065-5.839-40.989-9.246-63.693-9.344h-0.052c-16.135 0.031-31.841 1.794-46.964 5.113l1.457-0.268c28.541-101.279 118.073-175.066 225.517-179.59l0.496-0.017c-80.419-68.7-185.564-110.562-300.483-110.74h-0.038c-0.505-0.002-1.102-0.003-1.7-0.003-19.748 0-39.202 1.259-58.286 3.7l2.262-0.236c103.607-72.445 232.2-115.805 370.914-115.931h0.031c445.071 0 688.423 393.82 688.423 735.73 0 11.074-0.208 22.148-0.692 33.568 47.71 37.123 87.788 81.344 119.333 131.476l1.236 2.104z" />
<glyph unicode="&#xe90e;" glyph-name="btn" horiz-adv-x="802" d="M225.075 960h577.041v-1023.983h-577.041c40.021 116.514 77.636 228.113 144.35 332.646-174.711 66.765-247.040 108.783-369.425 179.354 116.958 68.352 187.102 107.008 369.425 179.354-66.714 104.516-104.329 216.115-144.35 332.629z" />
<glyph unicode="&#xe90f;" glyph-name="shopping-cart1" horiz-adv-x="892" d="M776.258 157.316l-47.599 514.147c-0.826 10.141-9.745 17.87-20.513 17.87h-100.319c-0.165 85.487-72.737 155.053-161.891 155.053-89.187 0-161.759-69.566-161.924-155.053h-100.286c-10.603 0-19.522-7.73-20.546-17.87l-47.566-514.147c0-0.661 0-1.156 0-1.817 0-57.245 54.933-103.853 122.351-103.853h415.909c67.452 0 122.385 46.609 122.385 103.853 0 0.661 0 1.156 0 1.817zM445.935 805.013c66.56 0 120.667-51.861 120.832-115.679h-241.664c0.165 63.818 54.239 115.679 120.832 115.679zM653.874 91.153h-415.909c-44.494 0-80.764 28.408-81.292 63.686l45.882 495.121h81.458v-69.103c0-10.835 9.249-19.687 20.546-19.687s20.546 8.853 20.546 19.687v69.103h241.664v-69.103c0-10.835 9.249-19.687 20.546-19.687s20.513 8.853 20.513 19.687v69.103h81.491l45.849-495.253c-0.495-35.146-36.798-63.554-81.292-63.554z" />
<glyph unicode="&#xe910;" glyph-name="redo1" horiz-adv-x="1082" d="M1006.104 530.066l-410.868 106.496 19.651 75.678 284.623-73.728c-72.216 145.896-223.573 241.323-388.486 241.323-238.885 0-433.152-194.072-433.152-432.762 0-64.073 13.995-124.977 39.107-179.736l-66.024-43.398c-32.914 67.438-51.395 143.116-51.395 223.134 0 281.795 229.425 510.976 511.464 510.976 185.588 0 356.45-102.254 446.025-260.876l47.884 262.827 76.995-13.946-75.825-415.988zM156.038 199.363c26.819-38.327 59.733-72.021 97.182-99.816l-23.845-31.208-23.698-30.964c-44.422 33.109-83.383 73.338-115.078 118.979l65.438 43.008zM320.366 58.49c36.035-17.701 74.898-30.622 115.712-37.742l-3.901-39.010-4.047-38.912c-55.491 8.972-108.056 27.063-155.989 52.517l23.991 31.354 24.235 31.793zM514.194 14.409c45.495 0.146 89.917 7.704 131.803 21.602l17.262-35.694 17.018-35.304c-53.443-18.871-110.592-28.965-169.253-28.965-1.658 0-3.218 0-4.876 0.098l3.998 39.010 4.047 39.253zM844.215 112.762l30.427-24.82c-36.035-36.474-77.434-67.291-122.636-91.331l-16.92 34.962-17.115 35.401c34.914 18.968 67.194 42.764 95.768 70.705l30.476-24.917zM906.24 269.58l71.485-32.037c-14.482-32.085-32.037-62.22-52.37-89.966l-30.379 24.722-30.33 24.82c16.043 22.479 30.037 46.763 41.594 72.46z" />
<glyph unicode="&#xe911;" glyph-name="undo1" horiz-adv-x="1083" d="M1031.656 223.939l-66.072 43.398c25.161 54.76 39.156 115.663 39.156 179.736 0 238.69-194.267 432.762-433.201 432.762-164.913 0-316.221-95.427-388.437-241.323l284.574 73.728 19.7-75.678-410.868-106.496-75.874 415.988 77.044 13.946 47.835-262.827c89.576 158.622 260.437 260.876 446.025 260.876 282.088 0 511.512-229.181 511.512-510.976 0-80.018-18.53-155.697-51.395-223.134zM176.323 269.58c11.557-25.698 25.551-49.981 41.594-72.46l-30.33-24.82-30.33-24.722c-20.382 27.746-37.888 57.88-52.37 89.966l71.436 32.037zM268.824 137.679c28.574-27.941 60.855-51.736 95.817-70.705l-17.115-35.401-16.969-34.962c-45.202 24.040-86.601 54.857-122.636 91.331l30.476 24.82 30.427 24.917zM436.565 36.011c41.886-13.897 86.309-21.455 131.852-21.602l3.998-39.253 3.998-39.010c-1.658-0.098-3.218-0.098-4.876-0.098-58.612 0-115.81 10.094-169.204 28.965l34.231 70.997zM786.481 26.697l23.991-31.354c-47.982-25.454-100.547-43.544-156.038-52.517l-3.998 38.912-3.95 39.010c40.862 7.119 79.677 20.041 115.712 37.742l24.283-31.793zM926.525 199.363l65.487-43.008c-31.744-45.641-70.656-85.87-115.127-118.979l-23.65 30.964-23.893 31.208c37.498 27.794 70.363 61.489 97.182 99.816z" />
<glyph unicode="&#xe912;" glyph-name="arrow-right" horiz-adv-x="597" d="M99.499 960l497.835-511.915-497.749-512-99.584 102.4 398.165 409.6-398.165 409.6 99.499 102.315z" />
<glyph unicode="&#xe913;" glyph-name="arrow-left" horiz-adv-x="597" d="M497.835-63.829l-497.835 512 497.749 511.915 99.584-102.4-398.251-409.515 398.251-409.685-99.499-102.315z" />
<glyph unicode="&#xe914;" glyph-name="undo" horiz-adv-x="790" d="M57.263 922.212l-56.008-268.747c-5.206-25.192 11.899-49.687 38.299-54.707l281.343-53.452c26.401-5.020 52.058 11.341 57.31 36.533 0.604 3.068 0.93 6.135 0.93 9.157 0 21.706-16.036 41.135-39.229 45.55l-174.811 33.233c135.443 70.231 309.138 50.71 423.293-58.286 69.627-66.466 104.394-153.802 104.394-241.092 0-87.336-34.813-174.672-104.394-241.138-139.207-132.933-365.704-132.933-504.912 0-19.010 18.174-49.873 18.174-68.883 0s-19.010-47.595 0-65.769c177.182-169.234 465.497-169.234 642.678 0 88.591 84.594 132.886 195.727 132.886 306.907-0.046 111.087-44.342 222.267-132.886 306.861-85.477 81.619-199.074 126.751-319.875 127.123-76.599 0.232-150.409-17.523-216.039-51.221l31.42 150.874c5.206 25.239-11.899 49.687-38.253 54.707-26.401 5.020-52.011-11.341-57.263-36.533z" />
<glyph unicode="&#xe915;" glyph-name="Location" d="M511.984 960c-207.854 0-376.975-169.121-376.975-376.996 0-54.222 11.098-105.991 32.969-153.883 94.254-206.25 274.966-424.007 328.118-485.827 3.982-4.622 9.788-7.283 15.898-7.283s11.915 2.662 15.898 7.283c53.132 61.809 233.843 279.556 328.129 485.827 21.882 47.892 32.969 99.662 32.969 153.883-0.021 207.875-169.142 376.996-377.006 376.996zM511.984 387.192c-107.972 0-195.823 87.851-195.823 195.823 0 107.983 87.851 195.834 195.823 195.834s195.823-87.851 195.823-195.834c0.010-107.972-87.841-195.823-195.823-195.823z" />
<glyph unicode="&#xe916;" glyph-name="Search" d="M998.935 82.081l-222.458 222.454c-1.182 1.182-2.569 2.009-3.805 3.109 43.772 66.399 69.32 145.881 69.32 231.356 0 232.513-188.487 421-420.996 421s-420.996-188.487-420.996-420.996c0-232.505 188.483-420.996 420.992-420.996 85.479 0 164.956 25.548 231.356 69.32 1.1-1.231 1.923-2.618 3.105-3.8l222.462-222.462c33.418-33.414 87.598-33.414 121.020 0 33.414 33.418 33.414 87.598 0 121.016zM420.996 263.953c-151.911 0-275.054 123.144-275.054 275.050 0 151.911 123.148 275.054 275.054 275.054 151.902 0 275.050-123.148 275.050-275.054s-123.148-275.050-275.050-275.050z" />
<glyph unicode="&#xe917;" glyph-name="delivery" d="M900.389 579.95l117.906 117.906c3.613 3.633 5.846 8.641 5.846 14.171 0 8.957-5.859 16.546-13.954 19.143l-0.142 0.039-287.071 88.649c-26.303 81.916-101.813 140.164-190.927 140.164-83.54 0-155.124-51.189-185.098-123.912l-0.486-1.331-332.537-103.57c-8.214-2.65-14.052-10.227-14.052-19.168 0-5.537 2.239-10.55 5.86-14.186l-0.001 0.001 121.008-120.832-76.303-127.269c-1.795-2.941-2.857-6.499-2.857-10.305 0-2.498 0.458-4.889 1.294-7.094l-0.046 0.138c2.216-5.64 6.696-9.976 12.291-11.951l0.143-0.044 110.68-36.864v-307.493c0-0.035 0-0.076 0-0.118 0-8.487 5.33-15.729 12.825-18.562l0.137-0.045c67.672-25.454 319.108-119.662 320.483-120.247 2.043-0.724 4.399-1.143 6.853-1.143 2.114 0 4.156 0.311 6.082 0.889l-0.15-0.039c0 0.293 0 0.293 0.176 0.293l360.097 119.954c7.999 2.667 13.664 10.087 13.664 18.83 0 0.066 0 0.131-0.001 0.197v-0.010 315.685l118.023 37.157c6.663 2.15 11.726 7.503 13.428 14.197l0.030 0.139c0.347 1.41 0.545 3.029 0.545 4.695 0 5.577-2.229 10.633-5.844 14.326l0.004-0.004zM732.072 760.174c0 4.974-0.205 9.947-0.585 15.214l235.052-72.558-99.825-99.767-163.109 54.126c17.821 29.423 28.394 64.962 28.467 102.965v0.020zM380.635 812.251c22.31 63.343 81.638 107.929 151.379 107.929 74.572 0 137.238-50.976 155.051-119.983l0.243-1.111c3.020-11.68 4.758-25.090 4.769-38.905v-0.007c-0.032-88.378-71.684-160.010-160.066-160.010-88.402 0-160.066 71.664-160.066 160.066 0 18.629 3.182 36.514 9.033 53.143l-0.344-1.121zM57.432 702.83l276.685 86.309c-1.346-8.695-2.122-18.733-2.136-28.95v-0.014c0-0.087 0-0.19 0-0.293 0-33.343 8.202-64.77 22.699-92.373l-0.522 1.091-196.842-65.536zM97.573 450.633l63.254 105.326 321.214-107.081-63.254-105.326c-34.319 11.41-284.584 94.793-321.214 107.081v0zM492.017-15.141l-280.079 105.033v280.576c220.365-73.143 209.598-71.095 215.742-71.095 7.273 0.107 13.605 4.031 17.094 9.855l0.051 0.092 47.192 78.409v-402.871zM512.029 481.061l-296.843 98.889 161.646 53.833c36.986-45.129 92.729-73.699 155.145-73.699 57.635 0 109.581 24.361 146.101 63.349l0.103 0.111 130.604-43.593zM852.114 90.478l-320.073-106.789v419.255l70.89-88.649c3.73-4.508 9.326-7.359 15.588-7.359 2.154 0 4.23 0.337 6.176 0.962l-0.143-0.040 227.562 71.387v-288.768zM625.635 349.989l-80.077 100.059 321.156 107.081 99.942-99.767zM625.635 349.989v0zM646.115 834.194c-3.601 3.662-8.609 5.93-14.146 5.93s-10.545-2.269-14.143-5.928l-105.885-105.914-25.863 26.039c-3.67 3.51-8.655 5.67-14.146 5.67s-10.476-2.16-14.153-5.678l0.008 0.007c-3.624-3.635-5.864-8.651-5.864-14.19s2.241-10.555 5.865-14.19l-0.001 0.001 39.995-40.082c3.67-3.51 8.655-5.67 14.146-5.67s10.476 2.16 14.153 5.678l-0.008-0.007 119.954 119.954c3.624 3.635 5.864 8.651 5.864 14.19s-2.241 10.555-5.865 14.19l0.001-0.001zM646.115 834.194v0z" />
<glyph unicode="&#xe918;" glyph-name="whiteTick" horiz-adv-x="1344" d="M427.52 149.76l-320.64 321.28-106.88-106.88 427.52-428.16 916.48 917.12-106.88 106.88z" />
<glyph unicode="&#xe919;" glyph-name="sewmachine" horiz-adv-x="1112" d="M740.557 158.764c-0.035 0-0.076 0-0.117 0-11.182 0-20.246 9.064-20.246 20.246s9.064 20.246 20.246 20.246c11.181 0 20.246-9.064 20.246-20.246v0c0.022-0.341 0.034-0.739 0.034-1.139 0-10.568-8.567-19.134-19.134-19.134-0.362 0-0.721 0.010-1.078 0.030l0.050-0.002zM814.46 158.764c-0.035 0-0.076 0-0.117 0-11.182 0-20.246 9.064-20.246 20.246s9.064 20.246 20.246 20.246c11.181 0 20.246-9.064 20.246-20.246v0c0.022-0.341 0.034-0.739 0.034-1.139 0-10.568-8.567-19.134-19.134-19.134-0.362 0-0.721 0.010-1.078 0.030l0.050-0.002zM75.454-64c-41.269 0.836-74.403 34.488-74.403 75.878s33.134 75.042 74.325 75.877l0.078 0.001h482.743l43.886 176.859c2.518 8.677 3.967 18.644 3.967 28.949 0 38.561-20.283 72.385-50.763 91.385l-0.455 0.264c-15.723 8.925-34.481 14.311-54.471 14.627l-0.094 0.001h-258.662c-0.237 0.002-0.517 0.004-0.798 0.004-49.654 0-89.907-40.253-89.907-89.907 0-0.413 0.003-0.825 0.008-1.236l-0.001 0.062v-37.127c0-0.017 0-0.037 0-0.057 0-34.634-23.2-63.85-54.907-72.954l-0.535-0.132v-56.759c0.009-0.229 0.015-0.498 0.015-0.768 0-11.133-9.025-20.158-20.158-20.158s-20.158 9.025-20.158 20.158c0 0.27 0.005 0.539 0.016 0.806l-0.001-0.038v56.759c-32.226 9.235-55.413 38.437-55.413 73.055 0 0.031 0 0.062 0 0.092v-0.005 426.832c0 0.017 0 0.038 0 0.059 0 41.79 33.802 75.684 75.557 75.834h0.014c27.797-0.804 51.975-15.583 65.838-37.527l0.195-0.331c9.748-19.061 24.021-34.59 41.45-45.566l0.476-0.28c28.027-17.351 62.016-27.634 98.406-27.634 0.849 0 1.696 0.006 2.542 0.017l-0.128-0.001h12.902c24.266 0.247 47.642 3.605 69.889 9.694l-1.925-0.449 193.916 57.49c26.042 8.199 56.048 13.231 87.13 13.891l0.349 0.006v64.366h-53.628c-10.845 0.425-19.476 9.32-19.476 20.231s8.631 19.806 19.438 20.23l0.039 0.001h16.794v70.832h-16.794c-10.845 0.425-19.476 9.32-19.476 20.231s8.631 19.806 19.438 20.23l0.039 0.001h147.807c10.845-0.425 19.476-9.32 19.476-20.231s-8.631-19.806-19.438-20.23l-0.039-0.001h-16.794v-70.861h16.794c11.165 0 20.217-9.051 20.217-20.217s-9.051-20.217-20.217-20.217h-53.745v-66.18c60.581-6.881 115.039-28.583 161.059-61.362l-1.052 0.712c77.312-55.207 128.874-142.19 135.525-241.473l0.053-0.981v-109.744h15.272v91.077c-0.037 0.771-0.059 1.676-0.059 2.585 0 31.541 25.569 57.11 57.11 57.11s57.11-25.569 57.11-57.11c0-0.909-0.021-1.813-0.063-2.712l0.005 0.127v-222.618c0.037-0.771 0.059-1.676 0.059-2.585 0-31.541-25.569-57.11-57.11-57.11s-57.11 25.569-57.11 57.11c0 0.909 0.021 1.813 0.063 2.712l-0.005-0.127v91.077h-15.126v-200.733h53.745c41.269-0.836 74.403-34.488 74.403-75.878s-33.134-75.042-74.325-75.877l-0.078-0.001h-960.834zM75.454 47.177c-19.125-0.567-34.412-16.206-34.412-35.416s15.288-34.849 34.36-35.415l0.052-0.001h960.688c19.125 0.567 34.412 16.206 34.412 35.416s-15.288 34.849-34.36 35.415l-0.052 0.001h-960.688zM942.109 87.64v349.243c-5.562 87.924-51.098 164.171-118.473 211.373l-0.896 0.595c-47.162 33.898-106.030 54.273-169.649 54.447h-0.043c-0.003 0-0.005 0-0.008 0-29.21 0-57.396-4.384-83.935-12.53l2.024 0.535-194.004-57.52c-23.759-7.113-51.060-11.206-79.317-11.206-0.205 0-0.41 0-0.615 0.001h-12.9c-0.264-0.001-0.575-0.002-0.887-0.002-44.399 0-85.875 12.519-121.089 34.22l0.998-0.572c-23.647 14.86-42.638 35.115-55.585 59.111l-0.413 0.837c-6.261 10.326-17.252 17.239-29.891 17.728l-0.069 0.002c-19.501-0.067-35.284-15.891-35.284-35.401 0-0.010 0-0.021 0-0.031v0.002-426.715c0-19.487 15.797-35.284 35.284-35.284s35.284 15.797 35.284 35.284v37.127c-0.008 0.532-0.012 1.16-0.012 1.79 0 71.727 58.146 129.872 129.872 129.872 0.395 0 0.79-0.002 1.184-0.005h258.602c27.581-0.248 53.326-7.891 75.413-21.036l-0.691 0.381c42.633-26.597 70.581-73.245 70.581-126.421 0-13.768-1.874-27.099-5.38-39.75l0.247 1.044-41.955-166.766h341.577zM1037.809 197.296c-0.009-0.209-0.015-0.455-0.015-0.701 0-9.291 7.532-16.823 16.823-16.823s16.823 7.532 16.823 16.823c0 0.247-0.005 0.492-0.016 0.736l0.001-0.035v16.881h-33.616v-16.881zM1071.426 254.64v33.733h-33.616v-33.47h33.616zM1071.426 328.836v34.026h-33.616v-33.763h33.616zM1071.426 403.032v16.881c0.009 0.209 0.015 0.455 0.015 0.701 0 9.291-7.532 16.823-16.823 16.823s-16.823-7.532-16.823-16.823c0-0.247 0.005-0.492 0.016-0.736l-0.001 0.035v-16.881h33.616zM683.447 848.325v70.832h-33.616v-70.832h33.616zM740.557 399.696c-0.122-0.001-0.266-0.001-0.41-0.001-52.159 0-94.442 42.283-94.442 94.442s42.283 94.442 94.442 94.442c52.159 0 94.442-42.283 94.442-94.441v0c0.003-0.279 0.005-0.609 0.005-0.94 0-51.496-41.746-93.243-93.243-93.243-0.279 0-0.559 0.001-0.837 0.004h0.043zM740.557 548.118c-0.070 0-0.152 0.001-0.234 0.001-29.812 0-53.979-24.167-53.979-53.979s24.167-53.979 53.979-53.979c29.812 0 53.979 24.167 53.979 53.979v0c0.015 0.474 0.024 1.032 0.024 1.592 0 29.085-23.578 52.663-52.663 52.663-0.389 0-0.777-0.004-1.164-0.013l0.058 0.001zM260.213 473.922c-11.165 0-20.217 9.051-20.217 20.217s9.051 20.217 20.217 20.217h184.73c11.165 0 20.217-9.051 20.217-20.217s-9.051-20.217-20.217-20.217h-184.73z" />
<glyph unicode="&#xe91a;" glyph-name="branch" d="M831.986 107.866h-0.006c0.039 0 0.078 0 0.117 0 10.99 0 19.899-8.909 19.899-19.899 0-0.010 0-0.020 0-0.028v0c0-11.005-8.921-19.926-19.926-19.926s-19.926 8.921-19.926 19.926c0 10.976 8.874 19.879 19.843 19.926zM831.986 107.866l60.001 757.206v34.871c0 0.008 0 0.018 0 0.028 0 33.143-26.86 60.013-59.999 60.029h-640.002c-33.144-0.032-60.001-26.908-60.001-60.056v0-34.871c-130.435-240.778-131.985-233.583-131.985-244.93v-40.13c0.867-36.683 21.431-68.372 51.49-84.981l0.513-0.26v-538.845c0 0 0 0 0 0 0-11.005 8.921-19.926 19.926-19.926 0.029 0 0.058 0 0.088 0h880.082c0.025 0 0.054 0 0.083 0 11.005 0 19.926 8.921 19.926 19.926 0 0 0 0 0 0v0 538.845c30.441 17.010 50.932 48.616 51.999 85.095l0.003 0.146v40.13c0 11.347-2.768 6.365-132.013 244.93v0zM910.17-117.137h-123.766l-66.671 199.818h80.453zM691.892 599.939h120.002v-19.926c0-33.138-26.863-60.001-60.001-60.001s-60.001 26.863-60.001 60.001v0 19.926zM688.82 640.069l-33.211 199.818h81.975l66.671-199.818h-115.325zM171.894 899.944c0 0 0 0 0 0 0 11.005 8.921 19.926 19.926 19.926 0.019 0 0.039 0 0.058 0h639.997c0.025 0 0.054 0 0.083 0 11.005 0 19.926-8.921 19.926-19.926 0 0 0 0 0 0v0-19.926h-679.991v19.926zM651.901 599.939v-19.926c0-33.138-26.863-60.001-60.001-60.001s-60.001 26.863-60.001 60.001v0 19.926h120.002zM531.899 640.069v199.818h83.027l33.211-199.818h-116.376zM375.504 640.069l33.211 199.818h83.027v-199.818h-116.376zM491.88 599.939v-19.926c0-33.138-26.863-60.001-60.001-60.001s-60.001 26.863-60.001 60.001v0 19.926h120.002zM219.634 640.069l66.671 199.818h81.975l-33.349-199.818h-115.186zM331.887 599.939v-19.926c0-33.138-26.863-60.001-60.001-60.001s-60.001 26.863-60.001 60.001v0 19.926h120.223zM163.702 839.888h80.426l-66.643-199.818h-123.766zM39.881 580.013v19.926h132.013v-19.926c-2.985-33.773-31.14-60.059-65.434-60.059-0.201 0-0.402 0.001-0.603 0.003h0.031c-9.463 0.077-18.433 2.106-26.553 5.704l0.427-0.169c-22.448 8.805-38.356 29.629-39.872 54.345l-0.009 0.176zM411.897-23.87h-199.901v171.866h200.012v-171.866zM411.897 188.125h-199.901v171.866h200.012v-171.866zM931.895-23.87h-479.896v403.788c0 0.008 0 0.018 0 0.028 0 11.084-8.939 20.081-20.001 20.175h-240.012c-11.056-0.094-19.982-9.078-19.982-20.147 0-0.020 0-0.039 0-0.059v0.003-403.788h-80.010v504.804c4.197-0.529 9.053-0.83 13.98-0.83 0.008 0 0.016 0 0.025 0h-0.001c28.171 0.214 53.782 11.002 73.097 28.585l-0.088-0.079c4.269 3.957 8.197 8.113 11.837 12.515l0.174 0.216c23.418 7.099 50.331 11.187 78.199 11.187 61.109 0 117.628-19.652 163.582-52.982l-0.809 0.559c18.489 24.316 47.435 39.854 80.010 39.854s61.521-15.538 79.831-39.607l0.18-0.246c18.484 24.315 47.426 39.854 79.997 39.854s61.513-15.539 79.817-39.607l0.18-0.247c33.16 0.015 62.553 16.133 80.783 40.958l0.196 0.279c3.814-4.618 7.742-8.774 11.928-12.655l0.083-0.076c19.224-17.509 44.837-28.298 72.966-28.506h0.042c0.001 0 0.001 0 0.002 0 4.934 0 9.799 0.302 14.575 0.888l-0.573-0.057v-504.804zM983.898 580.013c-1.478-25.465-18.090-46.698-40.915-54.938l-0.433-0.136c-7.281-3.118-15.752-4.946-24.645-4.982h-0.014c-0.17-0.002-0.371-0.002-0.573-0.002-34.294 0-62.449 26.286-65.416 59.809l-0.018 0.25v19.926h132.013v-19.926zM871.894 188.125h0.009c11.047-0.094 19.973-9.078 19.973-20.147 0-0.020 0-0.039 0-0.056v0.002c0-0.010 0-0.020 0-0.029 0-10.99-8.909-19.899-19.899-19.899-0.029 0-0.058 0-0.083 0h-320.010c-0.029 0-0.058 0-0.088 0-10.99 0-19.899 8.909-19.899 19.899 0 0.010 0 0.020 0 0.028v-0.003c0 0.020 0 0.039 0 0.059 0 11.069 8.926 20.053 19.982 20.147h20.010v191.79c0 0.010 0 0.020 0 0.030 0 11.084 8.939 20.081 20.010 20.175h239.985c11.062-0.094 20.001-9.091 20.001-20.175 0-0.010 0-0.020 0-0.028v-191.792h20.010l112.003 391.888zM923.897 580.013h-200.012v171.866h200.012v-171.866zM863.896 499.754v0c11.005 0 19.926-8.921 19.926-19.926s-8.921-19.926-19.926-19.926h-159.993c-11.005 0-19.926 8.921-19.926 19.926s8.921 19.926 19.926 19.926h159.993l60.001 80.259z" />
<glyph unicode="&#xe91b;" glyph-name="round-error-symbol" d="M512 960c-281.6 0-512-230.4-512-512s230.4-512 512-512 512 230.4 512 512-230.4 512-512 512zM563.2 192h-102.4v102.4h102.4v-102.4zM563.2 396.8h-102.4v307.2h102.4v-307.2z" />
<glyph unicode="&#xe949;" glyph-name="compass" d="M544.010-64.004c-2.296 0-4.622 0.25-6.94 0.764-14.648 3.25-25.070 16.238-25.070 31.24v480h-480c-15.002 0-27.992 10.422-31.24 25.070-3.25 14.646 4.114 29.584 17.708 35.928l960 448c12.196 5.688 26.644 3.144 36.16-6.372 9.516-9.514 12.060-23.966 6.372-36.16l-448-960c-5.342-11.44-16.772-18.47-28.99-18.47zM176.242 512h367.758c17.674 0 32-14.328 32-32v-367.758l349.79 749.546-749.548-349.788z" />
<glyph unicode="&#xe9cd;" glyph-name="attachment" d="M665.832 632.952l-64.952 64.922-324.81-324.742c-53.814-53.792-53.814-141.048 0-194.844 53.804-53.792 141.060-53.792 194.874 0l389.772 389.708c89.714 89.662 89.714 235.062 0 324.726-89.666 89.704-235.112 89.704-324.782 0l-409.23-409.178c-0.29-0.304-0.612-0.576-0.876-0.846-125.102-125.096-125.102-327.856 0-452.906 125.054-125.056 327.868-125.056 452.988 0 0.274 0.274 0.516 0.568 0.82 0.876l0.032-0.034 279.332 279.292-64.986 64.92-279.33-279.262c-0.296-0.268-0.564-0.57-0.846-0.844-89.074-89.058-233.98-89.058-323.076 0-89.062 89.042-89.062 233.922 0 322.978 0.304 0.304 0.604 0.582 0.888 0.846l-0.046 0.060 409.28 409.166c53.712 53.738 141.144 53.738 194.886 0 53.712-53.734 53.712-141.148 0-194.84l-389.772-389.7c-17.936-17.922-47.054-17.922-64.972 0-17.894 17.886-17.894 47.032 0 64.92l324.806 324.782z" />
<glyph unicode="&#xea07;" glyph-name="warning" d="M512 867.226l429.102-855.226h-858.206l429.104 855.226zM512 960c-22.070 0-44.14-14.882-60.884-44.648l-437.074-871.112c-33.486-59.532-5-108.24 63.304-108.24h869.308c68.3 0 96.792 48.708 63.3 108.24h0.002l-437.074 871.112c-16.742 29.766-38.812 44.648-60.882 44.648v0zM576 128c0-35.346-28.654-64-64-64s-64 28.654-64 64c0 35.346 28.654 64 64 64s64-28.654 64-64zM512 256c-35.346 0-64 28.654-64 64v192c0 35.346 28.654 64 64 64s64-28.654 64-64v-192c0-35.346-28.654-64-64-64z" />
<glyph unicode="&#xea8b;" glyph-name="google-plus" d="M325.8 502.6v-111.8h184.8c-7.4-48-55.8-140.6-184.8-140.6-111.2 0-202 92.2-202 205.8s90.8 205.8 202 205.8c63.4 0 105.6-27 129.8-50.2l88.4 85.2c-56.8 53-130.4 85.2-218.2 85.2-180.2-0.2-325.8-145.8-325.8-326s145.6-325.8 325.8-325.8c188 0 312.8 132.2 312.8 318.4 0 21.4-2.4 37.8-5.2 54h-307.6zM1024 512h-96v96h-96v-96h-96v-96h96v-96h96v96h96z" />
</font>
</defs>
</svg>
