<svg xmlns="http://www.w3.org/2000/svg" width="81" height="92" viewBox="0 0 81 92">
  <defs>
    <style>
      .cls-1 {
        fill-rule: evenodd;
      }
    </style>
  </defs>
  <path class="cls-1" d="M1260,6497.07v10.69c-0.03.06-.07,0.12-0.1,0.19q-2.955,7.05-5.89,14.08c-0.23.55-.45,1.09-0.7,1.68h0.47c0.71,0,1.42,0,2.13.01,0.17,0,.32-0.02.35,0.22,0.22,1.6.58,3.19,0.64,4.8,0.11,3.14.1,6.29,0.06,9.44a34.339,34.339,0,0,1-1.1,7.88,38.237,38.237,0,0,1-14.82,21.99,0.757,0.757,0,0,0-.35.7q0.015,9.36,0,18.71c0,0.51.01,1.02,0.01,1.53h-35.67c0-.02.01-0.05,0.01-0.07v-12.93c0-.11-0.02-0.22-0.02-0.37h-14.8v-18.68c-3.76-.86-7.49-1.7-11.22-2.55v-0.07c0.05-.07.11-0.13,0.15-0.2q4.9-8.715,9.78-17.42a1.386,1.386,0,0,0,.15-0.77,34.84,34.84,0,0,1-.32-5.77,37.069,37.069,0,0,1,.75-6.13,0.32,0.32,0,0,1,.39-0.32c0.64,0.02,1.29,0,1.94,0h1.33c0-.73.01-1.41-0.01-2.09a0.451,0.451,0,0,0-.21-0.27,27.29,27.29,0,0,1-2.32-2.1,12.887,12.887,0,0,1-3.06-11.8,13.265,13.265,0,0,1,14.58-10.31,12.912,12.912,0,0,1,8.8,4.83,13.491,13.491,0,0,1,3.06,7.99q1.71-5.985,3.43-11.99c4.99,2.13,9.92,4.25,14.91,6.38-1.55.78-3.03,1.52-4.53,2.27,0.03,0.07.04,0.12,0.06,0.17q1.8,3.885,3.59,7.77a0.367,0.367,0,0,0,.4.24c1-.01,2,0,2.99-0.01a2.913,2.913,0,0,0,2.84-2.85c0.01-1.9,0-3.81,0-5.71,0-.09-0.01-0.17-0.02-0.3h-2.95v-0.49c0-2.82-.01-5.63-0.01-8.44h8.9c0.01,0.11.03,0.22,0.03,0.33q0.015,4.125,0,8.25c0,0.11-.02.22-0.03,0.36h-2.93v5.93a5.939,5.939,0,0,1-4.04,5.62,8.305,8.305,0,0,1-2.8.29h-0.86c0.03,0.1.04,0.14,0.05,0.17,0.86,1.85,1.72,3.69,2.56,5.55a0.386,0.386,0,0,0,.45.22c2.07-.01,4.13-0.01,6.2,0a0.519,0.519,0,0,0,.57-0.38q4.185-9.78,8.39-19.54a1.22,1.22,0,0,1,.4-0.5c2.14-1.62,4.28-3.22,6.43-4.82C1258.68,6498,1259.35,6497.54,1260,6497.07Zm-6.25,29.6h-61.14a2.253,2.253,0,0,1-.26,0,0.264,0.264,0,0,0-.33.29,31.1,31.1,0,0,0,.17,9.58,1.146,1.146,0,0,1-.11.66q-3.06,5.475-6.13,10.93c-0.78,1.4-1.57,2.8-2.37,4.23,3.22,0.74,6.41,1.47,9.63,2.2v18.09h14.84v13.32h29.65v-0.5q0-9.165,0-18.34a0.632,0.632,0,0,1,.31-0.61,34.444,34.444,0,0,0,4.78-3.81,36.225,36.225,0,0,0,7.74-10.67,35.316,35.316,0,0,0,3.47-14.15c0.07-2.54.04-5.08,0.01-7.62C1253.99,6529.08,1253.84,6527.89,1253.75,6526.67Zm-48.71-2.97c0-1.06.04-2.08-.02-3.1a1.144,1.144,0,0,1,.69-1.21,10.356,10.356,0,1,0-14.12-3.87,10.527,10.527,0,0,0,4.22,4.07,0.544,0.544,0,0,1,.33.58c-0.02.61,0,1.22,0,1.83v1.69h2.97v-0.47c0-2.72-.01-5.45.01-8.18a0.579,0.579,0,0,0-.4-0.63,4.442,4.442,0,0,1,2.54-8.42,4.431,4.431,0,0,1,1.17,8.44,0.49,0.49,0,0,0-.34.53c0.02,2.77.01,5.55,0.01,8.33v0.41h2.94Zm40.88-.01c0.15,0.01.26,0.02,0.37,0.02,1.15,0.01,2.29-.01,3.44.01a0.438,0.438,0,0,0,.48-0.34q2.475-5.955,4.97-11.92c0.46-1.1.92-2.21,1.39-3.34-1.1-.54-2.17-1.08-3.27-1.62C1250.84,6512.24,1248.39,6517.95,1245.92,6523.69Zm-26.8-16.81c0.08,0.15.14,0.29,0.21,0.42,1.08,2.38,2.18,4.76,3.25,7.15a0.486,0.486,0,0,0,.52.35c0.94-.02,1.87-0.01,2.81-0.01h2.37c-1.48-3.21-2.94-6.36-4.41-9.54,0.45-.23.88-0.44,1.37-0.69-1.98-.84-3.9-1.67-5.86-2.5-0.52,1.83-1.03,3.61-1.56,5.46C1218.29,6507.29,1218.7,6507.09,1219.12,6506.88Zm-5.18,16.81c0-.99-0.01-1.95,0-2.91a5.933,5.933,0,0,1,4.69-5.78c0.27-.05.54-0.1,0.84-0.15-0.6-1.33-1.19-2.61-1.78-3.91-1.31.65-2.58,1.28-3.84,1.93a0.527,0.527,0,0,0-.21.31,13.317,13.317,0,0,1-5.4,8.17,0.478,0.478,0,0,0-.2.28c-0.02.68-.01,1.36-0.01,2.06h5.91Zm18.47,0.02c-0.91-1.96-1.78-3.85-2.67-5.74a0.5,0.5,0,0,0-.38-0.18c-1.64-.01-3.29-0.01-4.93-0.01a1.259,1.259,0,0,0-.27.04c0.01,0.07.01,0.11,0.02,0.15,0.84,1.84,1.69,3.68,2.52,5.52a0.361,0.361,0,0,0,.41.23c1.16-.01,2.32-0.01,3.47-0.01h1.83Zm-8.92-.02c-0.06-.15-0.11-0.27-0.16-0.38-0.71-1.57-1.43-3.14-2.14-4.71-0.39-.85-0.39-0.85-1.32-0.82a2.9,2.9,0,0,0-2.84,2.36,32.256,32.256,0,0,0-.03,3.55h6.49Zm17.16-23.64h-2.92v2.9h2.92v-2.9Zm-40.05,11.82a1.475,1.475,0,1,0-.01-2.95A1.475,1.475,0,0,0,1200.6,6511.87Zm54.79-7.66c0.55,0.28,1.06.53,1.58,0.79v-1.98C1256.43,6503.43,1255.93,6503.81,1255.39,6504.21Zm-59.22,26.92h2.93a4.38,4.38,0,0,0,1.62,3.57,4.69,4.69,0,0,0,3.25.85,4.2,4.2,0,0,0,2.98-1.34,4.63,4.63,0,0,0,1.08-3.07h2.98a6.986,6.986,0,0,1-2.92,5.96,7.55,7.55,0,0,1-8.47.39A6.955,6.955,0,0,1,1196.17,6531.13Z" transform="translate(-1179 -6497)"/>
</svg>
