<svg xmlns="http://www.w3.org/2000/svg" xmlns:xlink="http://www.w3.org/1999/xlink" preserveAspectRatio="xMidYMid" width="118" height="55" viewBox="0 0 118 55">
  <defs>
    <style>
      .cls-1 {
        fill: #b88b1c;
        fill-rule: evenodd;
      }
    </style>
  </defs>
  <path d="M91.266,55.002 L64.524,55.002 L64.524,0.350 C74.233,0.350 83.347,2.855 91.266,7.235 C99.185,2.855 108.299,0.350 118.008,0.350 L118.008,55.002 L91.266,55.002 ZM104.794,15.594 C101.715,16.612 98.767,17.988 96.005,19.686 C94.240,15.238 92.544,10.969 91.266,7.770 C89.988,10.969 88.291,15.238 86.527,19.686 C83.765,17.988 80.817,16.612 77.737,15.594 L77.737,41.886 L91.266,41.886 L104.794,41.886 L104.794,15.594 ZM52.587,52.021 C52.209,52.380 51.809,52.687 51.397,52.935 C50.985,53.183 50.522,53.391 50.019,53.553 C49.507,53.716 48.940,53.837 48.336,53.910 C47.719,53.985 47.016,54.025 46.249,54.025 L40.714,54.025 L40.714,33.151 L38.375,33.151 L38.375,30.555 L43.331,30.555 L43.331,51.428 L45.986,51.428 C46.811,51.428 47.594,51.353 48.313,51.205 C49.087,51.049 49.746,50.745 50.271,50.304 C50.757,49.884 51.101,49.345 51.298,48.699 C51.415,48.313 51.490,47.871 51.532,47.386 L54.175,47.386 C54.146,48.259 54.027,49.102 53.810,49.898 C53.574,50.766 53.162,51.481 52.587,52.021 ZM48.204,23.497 L48.204,20.900 L50.819,20.900 L50.819,23.497 L48.204,23.497 ZM30.356,18.407 L25.260,18.407 L25.233,18.916 C25.137,20.807 24.713,21.499 23.976,22.313 C23.258,23.100 22.097,23.499 20.519,23.499 C20.191,23.499 19.870,23.479 19.556,23.438 C19.412,23.419 19.275,23.398 19.153,23.371 L19.228,20.841 C19.515,20.882 19.815,20.902 20.123,20.902 C21.045,20.902 21.708,20.625 22.111,20.075 C22.466,19.574 22.644,18.827 22.644,17.796 L22.644,5.895 L26.831,5.895 L26.831,8.071 L25.260,8.071 L25.260,15.809 L50.454,15.823 L51.124,15.823 L51.124,14.037 C51.124,13.217 51.055,12.444 50.905,11.724 C50.810,11.263 50.659,10.844 50.454,10.463 C50.325,10.219 50.167,9.988 49.990,9.779 C49.573,9.304 49.033,8.958 48.377,8.761 C47.776,8.585 47.039,8.490 46.198,8.490 L40.603,8.490 L40.603,5.900 L46.649,5.900 C47.674,5.900 48.658,6.021 49.587,6.273 C49.894,6.354 50.188,6.456 50.454,6.584 C50.946,6.815 51.370,7.120 51.725,7.487 C52.087,7.859 52.394,8.253 52.647,8.667 C52.804,8.924 52.948,9.209 53.071,9.507 C53.146,9.677 53.207,9.852 53.269,10.036 C53.433,10.545 53.556,11.108 53.631,11.704 C53.706,12.314 53.740,13.013 53.740,13.779 L53.740,18.420 L30.356,18.420 L30.356,18.407 ZM22.639,-0.002 L25.254,-0.002 L25.254,2.594 L22.639,2.594 L22.639,-0.002 ZM19.691,35.424 L19.691,32.902 L34.629,32.902 L34.629,35.753 L21.740,51.254 L34.929,51.254 L34.929,53.776 L18.735,53.776 L18.735,50.926 L31.652,35.424 L19.691,35.424 ZM13.895,23.497 L8.360,23.497 C7.593,23.497 6.891,23.458 6.273,23.383 C5.669,23.309 5.102,23.189 4.590,23.025 C4.087,22.864 3.624,22.655 3.212,22.408 C2.800,22.159 2.400,21.853 2.022,21.495 C1.447,20.954 1.036,20.238 0.799,19.371 C0.582,18.575 0.464,17.731 0.434,16.859 L3.077,16.859 C3.119,17.344 3.195,17.786 3.312,18.170 C3.508,18.817 3.852,19.357 4.338,19.776 C4.864,20.218 5.523,20.522 6.296,20.679 C7.015,20.826 7.798,20.900 8.624,20.900 L11.279,20.900 L11.279,0.026 L16.235,0.026 L16.235,2.623 L13.895,2.623 L13.895,23.497 ZM2.877,48.699 C3.073,49.345 3.417,49.884 3.903,50.304 C4.429,50.745 5.088,51.049 5.861,51.205 C6.580,51.353 7.364,51.428 8.189,51.428 L10.844,51.428 L10.844,30.555 L15.800,30.555 L15.800,33.151 L13.460,33.151 L13.460,54.025 L7.925,54.025 C7.158,54.025 6.456,53.985 5.839,53.910 C5.234,53.837 4.668,53.716 4.156,53.553 C3.653,53.391 3.189,53.183 2.777,52.935 C2.365,52.687 1.965,52.380 1.587,52.021 C1.012,51.481 0.601,50.766 0.364,49.898 C0.147,49.102 0.029,48.259 -0.001,47.386 L2.642,47.386 C2.684,47.871 2.760,48.313 2.877,48.699 Z" class="cls-1"/>
</svg>
