<svg xmlns="http://www.w3.org/2000/svg" width="34.094" height="34.53" viewBox="0 0 34.094 34.53">
  <defs>
    <style>
      .cls-1 {
        fill: #7f6469;
        fill-rule: evenodd;
      }
    </style>
  </defs>
  <path id="Forma_1" data-name="Forma 1" class="cls-1" d="M333.675,2019.47H318.4A9.476,9.476,0,0,0,309,2029v15.47a9.476,9.476,0,0,0,9.4,9.53h15.27a9.482,9.482,0,0,0,9.406-9.53V2029A9.476,9.476,0,0,0,333.675,2019.47Zm6.382,25a6.432,6.432,0,0,1-6.381,6.47H318.4a6.431,6.431,0,0,1-6.381-6.47V2029a6.431,6.431,0,0,1,6.381-6.47h15.27a6.432,6.432,0,0,1,6.382,6.47v15.47h0Zm-14.017-16.63a8.9,8.9,0,1,0,8.782,8.89A8.847,8.847,0,0,0,326.04,2027.84Zm0,14.73a5.836,5.836,0,1,1,5.758-5.84A5.807,5.807,0,0,1,326.04,2042.57Zm9.15-17.33a2.208,2.208,0,0,0-1.566.66,2.245,2.245,0,0,0-.651,1.58,2.287,2.287,0,0,0,.651,1.59,2.191,2.191,0,0,0,3.135,0,2.285,2.285,0,0,0,.649-1.59,2.244,2.244,0,0,0-.649-1.58A2.211,2.211,0,0,0,335.19,2025.24Z" transform="translate(-309 -2019.47)"/>
</svg>
