<svg xmlns="http://www.w3.org/2000/svg" xmlns:xlink="http://www.w3.org/1999/xlink" preserveAspectRatio="xMidYMid" width="110" height="194" viewBox="0 0 110 194">
  <g>
    <path d="M0.001,169.366 L0.001,-3.998 L110.000,-3.998 L110.000,169.366 C97.483,164.984 85.495,160.867 74.267,153.566 C67.094,172.688 62.581,180.604 55.000,193.999 C47.657,181.199 43.503,173.521 35.734,153.566 C24.505,160.867 12.518,164.984 0.001,169.366 Z" class="cls-1"/>
    <path d="M32.300,68.844 L32.300,19.998 C40.722,19.998 48.629,22.238 55.499,26.153 C62.369,22.238 70.276,19.998 78.699,19.998 L78.699,68.844 L55.499,68.844 L32.300,68.844 ZM67.236,33.622 C64.564,34.532 62.007,35.763 59.610,37.280 C58.080,33.306 56.608,29.490 55.499,26.630 C54.391,29.490 52.919,33.306 51.388,37.280 C48.992,35.763 46.434,34.532 43.763,33.622 L43.763,57.121 L55.499,57.121 L67.236,57.121 L67.236,33.622 ZM34.496,121.239 C34.666,121.817 34.965,122.298 35.387,122.674 C35.842,123.069 36.414,123.340 37.085,123.481 C37.708,123.612 38.388,123.679 39.104,123.679 L41.407,123.679 L41.407,105.023 L45.707,105.023 L45.707,107.344 L43.677,107.344 L43.677,125.999 L38.876,125.999 C38.210,125.999 37.601,125.965 37.065,125.897 C36.541,125.831 36.049,125.724 35.605,125.577 C35.169,125.433 34.767,125.247 34.410,125.025 C34.052,124.804 33.705,124.530 33.377,124.209 C32.878,123.726 32.521,123.087 32.316,122.311 C32.128,121.600 32.025,120.845 32.000,120.066 L34.292,120.066 C34.329,120.499 34.394,120.894 34.496,121.239 ZM46.084,77.740 L46.084,80.060 L44.054,80.060 L44.054,98.715 L39.253,98.715 C38.587,98.715 37.978,98.681 37.442,98.613 C36.918,98.548 36.427,98.440 35.982,98.294 C35.546,98.150 35.144,97.964 34.787,97.742 C34.429,97.520 34.082,97.246 33.754,96.925 C33.256,96.443 32.898,95.804 32.693,95.028 C32.505,94.317 32.402,93.562 32.377,92.783 L34.669,92.783 C34.706,93.216 34.771,93.612 34.873,93.956 C35.044,94.534 35.342,95.015 35.764,95.390 C36.219,95.785 36.791,96.056 37.462,96.197 C38.086,96.328 38.766,96.395 39.482,96.395 L41.785,96.395 L41.785,77.740 L46.084,77.740 ZM49.082,109.375 L49.082,107.122 L62.042,107.122 L62.042,109.669 L50.860,123.523 L62.302,123.523 L62.302,125.777 L48.253,125.777 L48.253,123.229 L59.459,109.375 L49.082,109.375 ZM73.818,98.715 L73.818,96.395 L76.087,96.395 L76.087,98.715 L73.818,98.715 ZM51.640,77.713 L53.909,77.713 L53.909,80.034 L51.640,80.034 L51.640,77.713 ZM76.162,88.194 C76.079,87.783 75.949,87.406 75.771,87.067 C75.658,86.849 75.522,86.643 75.368,86.455 C75.006,86.031 74.538,85.721 73.969,85.545 C73.448,85.389 72.808,85.303 72.079,85.303 L67.225,85.303 L67.225,82.988 L72.470,82.988 C73.359,82.988 74.212,83.098 75.018,83.322 C75.285,83.394 75.540,83.485 75.771,83.600 C76.198,83.806 76.565,84.079 76.873,84.406 C77.187,84.739 77.454,85.091 77.673,85.461 C77.810,85.691 77.934,85.945 78.041,86.212 C78.106,86.364 78.159,86.521 78.213,86.684 C78.355,87.139 78.462,87.643 78.527,88.176 C78.592,88.722 78.622,89.346 78.622,90.030 L78.622,94.178 L58.335,94.178 L58.335,94.167 L53.914,94.167 L53.890,94.621 C53.807,96.312 53.440,96.930 52.800,97.657 C52.177,98.361 51.170,98.718 49.801,98.718 C49.516,98.718 49.238,98.700 48.965,98.663 C48.841,98.645 48.722,98.627 48.616,98.603 L48.681,96.343 C48.930,96.379 49.190,96.397 49.457,96.397 C50.257,96.397 50.832,96.148 51.182,95.657 C51.490,95.209 51.644,94.542 51.644,93.621 L51.644,82.983 L55.277,82.983 L55.277,84.930 L53.914,84.930 L53.914,91.845 L75.771,91.857 L76.352,91.857 L76.352,90.261 C76.352,89.528 76.292,88.837 76.162,88.194 ZM69.591,123.679 L71.894,123.679 C72.610,123.679 73.290,123.612 73.913,123.481 C74.585,123.340 75.156,123.069 75.612,122.674 C76.034,122.298 76.332,121.817 76.503,121.239 C76.604,120.894 76.670,120.499 76.706,120.066 L78.999,120.066 C78.973,120.845 78.871,121.600 78.682,122.311 C78.477,123.087 78.120,123.726 77.621,124.209 C77.293,124.530 76.946,124.804 76.589,125.025 C76.232,125.247 75.830,125.433 75.393,125.577 C74.949,125.724 74.458,125.831 73.933,125.897 C73.398,125.965 72.788,125.999 72.123,125.999 L67.321,125.999 L67.321,107.344 L65.291,107.344 L65.291,105.023 L69.591,105.023 L69.591,123.679 Z" class="cls-2"/>
  </g>
</svg>
