<svg xmlns="http://www.w3.org/2000/svg" xmlns:xlink="http://www.w3.org/1999/xlink" preserveAspectRatio="xMidYMid" width="22.187" height="21" viewBox="0 0 22.187 21">
  <defs>
    <style>
      .cls-1 {
        fill: #000;
        fill-rule: evenodd;
      }
    </style>
  </defs>
  <path d="M20.633,8.817 L19.495,8.522 L12.207,6.633 L12.610,5.081 L18.447,6.593 C16.966,3.601 13.862,1.644 10.480,1.644 C5.581,1.644 1.597,5.624 1.597,10.519 C1.597,11.833 1.884,13.082 2.399,14.205 L1.719,14.652 L1.045,15.095 C0.370,13.712 -0.009,12.160 -0.009,10.519 C-0.009,4.740 4.696,0.040 10.480,0.040 C14.286,0.040 17.790,2.137 19.627,5.390 L20.609,-0.000 L22.188,0.286 L20.633,8.817 ZM3.200,15.599 C3.750,16.385 4.425,17.076 5.193,17.646 L4.704,18.286 L4.218,18.921 C3.307,18.242 2.508,17.417 1.858,16.481 L2.526,16.042 L3.200,15.599 ZM6.570,18.488 C7.309,18.851 8.106,19.116 8.943,19.262 L8.863,20.062 L8.780,20.860 C7.642,20.676 6.564,20.305 5.581,19.783 L6.073,19.140 L6.570,18.488 ZM10.545,19.392 C11.478,19.389 12.389,19.234 13.248,18.949 L13.602,19.681 L13.951,20.405 C12.855,20.792 11.683,20.999 10.480,20.999 C10.446,20.999 10.414,20.999 10.380,20.997 L10.462,20.197 L10.545,19.392 ZM17.313,17.375 L17.937,17.884 C17.198,18.632 16.349,19.264 15.422,19.757 L15.075,19.040 L14.724,18.314 C15.440,17.925 16.102,17.437 16.688,16.864 L17.313,17.375 ZM18.585,14.159 L19.318,14.488 L20.051,14.816 C19.754,15.474 19.394,16.092 18.977,16.661 L18.354,16.154 L17.732,15.645 C18.061,15.184 18.348,14.686 18.585,14.159 Z" class="cls-1"/>
</svg>
