<svg xmlns="http://www.w3.org/2000/svg" xmlns:xlink="http://www.w3.org/1999/xlink" preserveAspectRatio="xMidYMid" width="27" height="31" viewBox="0 0 27 31">
  <defs>
    <style>
      .cls-1 {
        fill: #f6f5f1;
        stroke: #f0efea;
        stroke-linejoin: round;
        stroke-width: 1px;
        fill-rule: evenodd;
      }
    </style>
  </defs>
  <path d="M23.500,24.300 L22.059,8.735 C22.034,8.428 21.764,8.194 21.438,8.194 L18.401,8.194 C18.396,5.606 16.199,3.500 13.500,3.500 C10.800,3.500 8.603,5.606 8.598,8.194 L5.562,8.194 C5.241,8.194 4.971,8.428 4.940,8.735 L3.500,24.300 C3.500,24.320 3.500,24.335 3.500,24.355 C3.500,26.088 5.163,27.499 7.204,27.499 L19.795,27.499 C21.837,27.499 23.500,26.088 23.500,24.355 C23.500,24.335 23.500,24.320 23.500,24.300 ZM13.500,4.692 C15.515,4.692 17.153,6.262 17.158,8.194 L9.842,8.194 C9.847,6.262 11.484,4.692 13.500,4.692 ZM19.795,26.303 L7.204,26.303 C5.857,26.303 4.759,25.443 4.743,24.375 L6.132,9.386 L8.598,9.386 L8.598,11.478 C8.598,11.806 8.878,12.074 9.220,12.074 C9.562,12.074 9.842,11.806 9.842,11.478 L9.842,9.386 L17.158,9.386 L17.158,11.478 C17.158,11.806 17.438,12.074 17.780,12.074 C18.122,12.074 18.401,11.806 18.401,11.478 L18.401,9.386 L20.868,9.386 L22.256,24.379 C22.241,25.443 21.142,26.303 19.795,26.303 Z" class="cls-1"/>
</svg>
