<svg xmlns="http://www.w3.org/2000/svg" width="34.094" height="29.59" viewBox="0 0 34.094 29.59">
  <defs>
    <style>
      .cls-1 {
        fill: #826369;
        fill-rule: evenodd;
      }
    </style>
  </defs>
  <path id="Forma_1" data-name="Forma 1" class="cls-1" d="M452.626,2025.44a13.377,13.377,0,0,1-4.016,1.17,7.418,7.418,0,0,0,3.075-4.13,13.281,13.281,0,0,1-4.44,1.81,6.792,6.792,0,0,0-5.1-2.36,7.249,7.249,0,0,0-6.992,7.48,8.04,8.04,0,0,0,.181,1.7,19.461,19.461,0,0,1-14.412-7.81,7.832,7.832,0,0,0-.947,3.76,7.621,7.621,0,0,0,3.111,6.22,6.643,6.643,0,0,1-3.167-.94c0,0.03,0,.07,0,0.1a7.358,7.358,0,0,0,5.609,7.32,6.606,6.606,0,0,1-1.842.27,6.358,6.358,0,0,1-1.315-.14,7.073,7.073,0,0,0,6.531,5.19,13.438,13.438,0,0,1-8.684,3.2,13.142,13.142,0,0,1-1.668-.1,18.877,18.877,0,0,0,10.719,3.35c12.861,0,19.893-11.38,19.893-21.26,0-.32-0.006-0.64-0.02-0.97A14.653,14.653,0,0,0,452.626,2025.44Z" transform="translate(-418.531 -2021.94)"/>
</svg>
