<svg xmlns="http://www.w3.org/2000/svg" xmlns:xlink="http://www.w3.org/1999/xlink" preserveAspectRatio="xMidYMid" width="22.219" height="21" viewBox="0 0 22.219 21">
  <defs>
    <style>
      .cls-1 {
        fill: #000;
        fill-rule: evenodd;
      }
    </style>
  </defs>
  <path d="M21.157,15.095 L20.482,14.652 L19.802,14.205 C20.318,13.082 20.605,11.833 20.605,10.519 C20.605,5.624 16.621,1.644 11.721,1.644 C8.339,1.644 5.236,3.601 3.755,6.593 L9.591,5.081 L9.995,6.633 L2.707,8.522 L1.569,8.817 L0.013,0.286 L1.593,-0.000 L2.574,5.390 C4.411,2.137 7.915,0.040 11.721,0.040 C17.506,0.040 22.211,4.740 22.211,10.519 C22.211,12.160 21.831,13.712 21.157,15.095 ZM3.616,14.159 C3.853,14.686 4.140,15.184 4.469,15.645 L3.847,16.154 L3.225,16.661 C2.807,16.092 2.448,15.474 2.151,14.816 L2.883,14.488 L3.616,14.159 ZM5.513,16.864 C6.099,17.437 6.761,17.925 7.478,18.314 L7.127,19.040 L6.779,19.757 C5.852,19.264 5.003,18.632 4.264,17.884 L4.889,17.375 L5.513,16.864 ZM8.953,18.949 C9.812,19.234 10.723,19.389 11.657,19.392 L11.739,20.197 L11.821,20.997 C11.787,20.999 11.755,20.999 11.721,20.999 C10.519,20.999 9.346,20.792 8.251,20.405 L8.600,19.681 L8.953,18.949 ZM16.129,19.140 L16.621,19.783 C15.637,20.305 14.559,20.676 13.421,20.860 L13.339,20.062 L13.258,19.262 C14.096,19.116 14.892,18.851 15.631,18.488 L16.129,19.140 ZM19.001,15.599 L19.675,16.042 L20.344,16.481 C19.693,17.417 18.895,18.242 17.983,18.921 L17.498,18.286 L17.008,17.646 C17.777,17.076 18.451,16.385 19.001,15.599 Z" class="cls-1"/>
</svg>
